<mxfile host="app.diagrams.net" modified="2023-07-25T11:10:47.156Z" agent="Mozilla/5.0 (Windows NT 10.0; Win64; x64) AppleWebKit/537.36 (KHTML, like Gecko) Chrome/114.0.0.0 Safari/537.36" version="21.6.5" etag="kZDNToIfi5QXEwyAvB3h" type="github">
  <diagram name="Сторінка-1" id="k4ZCiuF2zUgpVb6aFWHY">
    <mxGraphModel>
      <root>
        <mxCell id="0" />
        <mxCell id="1" parent="0" />
      </root>
    </mxGraphModel>
  </diagram>
</mxfile>
